<svg width="618" height="596" viewBox="0 0 618 596" fill="none" xmlns="http://www.w3.org/2000/svg">
<mask id="mask0" style="mask-type:alpha" maskUnits="userSpaceOnUse" x="82" y="53" width="447" height="437">
<ellipse cx="305.231" cy="271.25" rx="223" ry="218" fill="#561082"/>
</mask>
<g mask="url(#mask0)">
<ellipse cx="305.231" cy="271.25" rx="223" ry="218" fill="#9778B6"/>
<path d="M298.9 389.14C344.555 476.281 190.143 613.177 107.23 670.733L599.706 755.089L535.304 200.069C437.48 226.784 253.245 302 298.9 389.14Z" fill="url(#paint0_radial)"/>
<path d="M214.16 201.494C226.588 103.906 431.558 80.0084 532.489 80.258L176.902 -270.75L-87.9062 221.258C7.60425 255.332 201.732 299.083 214.16 201.494Z" fill="url(#paint1_radial)"/>
</g>
<path d="M120.458 306.136L284.921 277.137L330.764 537.126L166.301 566.125L120.458 306.136Z" fill="url(#paint2_linear)"/>
<path d="M0 347.151L156.929 290.033L247.222 538.112L90.2933 595.229L0 347.151Z" fill="url(#paint3_linear)"/>
<path d="M331.302 277.137L495.765 306.136L449.922 566.126L285.459 537.126L331.302 277.137Z" fill="url(#paint4_linear)"/>
<path d="M461.066 289.146L617.995 346.264L527.702 594.342L370.773 537.225L461.066 289.146Z" fill="url(#paint5_linear)"/>
<path d="M222.111 271.631H389.111V535.631H222.111V271.631Z" fill="url(#paint6_linear)"/>
<path d="M139.551 366.25C146.991 366.25 153.431 367.49 158.871 369.97C164.391 372.45 168.631 375.97 171.591 380.53C174.551 385.09 176.031 390.49 176.031 396.73C176.031 402.89 174.551 408.29 171.591 412.93C168.631 417.49 164.391 421.01 158.871 423.49C153.431 425.89 146.991 427.09 139.551 427.09H122.631V450.25H103.191V366.25H139.551ZM138.471 411.25C144.311 411.25 148.751 410.01 151.791 407.53C154.831 404.97 156.351 401.37 156.351 396.73C156.351 392.01 154.831 388.41 151.791 385.93C148.751 383.37 144.311 382.09 138.471 382.09H122.631V411.25H138.471ZM254.802 385.69V439.45C254.802 451.29 251.802 460.09 245.802 465.85C239.802 471.61 231.082 474.49 219.642 474.49C213.562 474.49 207.802 473.73 202.362 472.21C197.002 470.69 192.482 468.49 188.802 465.61L196.242 452.17C198.962 454.41 202.282 456.17 206.202 457.45C210.122 458.73 214.082 459.37 218.082 459.37C224.322 459.37 228.882 457.93 231.762 455.05C234.642 452.17 236.082 447.77 236.082 441.85V439.69C233.682 442.09 230.842 443.93 227.562 445.21C224.282 446.49 220.762 447.13 217.002 447.13C208.522 447.13 201.802 444.73 196.842 439.93C191.882 435.05 189.402 427.77 189.402 418.09V385.69H208.122V415.33C208.122 425.81 212.482 431.05 221.202 431.05C225.682 431.05 229.282 429.61 232.002 426.73C234.722 423.77 236.082 419.41 236.082 413.65V385.69H254.802ZM311.025 447.13C309.185 448.49 306.905 449.53 304.185 450.25C301.545 450.89 298.785 451.21 295.905 451.21C288.145 451.21 282.185 449.25 278.025 445.33C273.865 441.41 271.785 435.65 271.785 428.05V371.41H290.505V387.13H306.465V401.53H290.505V427.81C290.505 430.53 291.185 432.65 292.545 434.17C293.905 435.61 295.865 436.33 298.425 436.33C301.305 436.33 303.865 435.53 306.105 433.93L311.025 447.13ZM360.838 384.73C368.838 384.73 375.278 387.13 380.158 391.93C385.118 396.73 387.598 403.85 387.598 413.29V450.25H368.878V416.17C368.878 411.05 367.758 407.25 365.518 404.77C363.278 402.21 360.038 400.93 355.798 400.93C351.078 400.93 347.318 402.41 344.518 405.37C341.718 408.25 340.318 412.57 340.318 418.33V450.25H321.598V361.21H340.318V392.41C342.798 389.93 345.798 388.05 349.318 386.77C352.838 385.41 356.678 384.73 360.838 384.73ZM404.567 385.69H423.287V450.25H404.567V385.69ZM413.927 376.69C410.487 376.69 407.687 375.69 405.527 373.69C403.367 371.69 402.287 369.21 402.287 366.25C402.287 363.29 403.367 360.81 405.527 358.81C407.687 356.81 410.487 355.81 413.927 355.81C417.367 355.81 420.167 356.77 422.327 358.69C424.487 360.61 425.567 363.01 425.567 365.89C425.567 369.01 424.487 371.61 422.327 373.69C420.167 375.69 417.367 376.69 413.927 376.69ZM506.181 385.69V450.25H488.301V442.81C483.661 448.41 476.941 451.21 468.141 451.21C462.061 451.21 456.541 449.85 451.581 447.13C446.701 444.41 442.861 440.53 440.061 435.49C437.261 430.45 435.861 424.61 435.861 417.97C435.861 411.33 437.261 405.49 440.061 400.45C442.861 395.41 446.701 391.53 451.581 388.81C456.541 386.09 462.061 384.73 468.141 384.73C476.381 384.73 482.821 387.33 487.461 392.53V385.69H506.181ZM471.381 435.85C476.101 435.85 480.021 434.25 483.141 431.05C486.261 427.77 487.821 423.41 487.821 417.97C487.821 412.53 486.261 408.21 483.141 405.01C480.021 401.73 476.101 400.09 471.381 400.09C466.581 400.09 462.621 401.73 459.501 405.01C456.381 408.21 454.821 412.53 454.821 417.97C454.821 423.41 456.381 427.77 459.501 431.05C462.621 434.25 466.581 435.85 471.381 435.85Z" fill="url(#paint7_linear)"/>
<defs>
<radialGradient id="paint0_radial" cx="0" cy="0" r="1" gradientUnits="userSpaceOnUse" gradientTransform="translate(398.73 448.67) rotate(-80.2801) scale(268.09 249.824)">
<stop stop-color="#1B0926"/>
<stop offset="1" stop-color="#40125C" stop-opacity="0"/>
</radialGradient>
<radialGradient id="paint1_radial" cx="0" cy="0" r="1" gradientUnits="userSpaceOnUse" gradientTransform="translate(166.36 95.5466) rotate(134.629) scale(268.09 249.824)">
<stop stop-color="#1B0926"/>
<stop offset="1" stop-color="#40125C" stop-opacity="0"/>
</radialGradient>
<linearGradient id="paint2_linear" x1="202.689" y1="291.637" x2="248.533" y2="551.626" gradientUnits="userSpaceOnUse">
<stop stop-color="white"/>
<stop offset="0.0001" stop-color="#E3EAEF"/>
<stop offset="1" stop-color="#9FD3F9"/>
</linearGradient>
<linearGradient id="paint3_linear" x1="78.4643" y1="318.592" x2="168.758" y2="566.671" gradientUnits="userSpaceOnUse">
<stop stop-color="white"/>
<stop offset="0.0001" stop-color="#E3EAEF"/>
<stop offset="1" stop-color="#9FD3F9"/>
</linearGradient>
<linearGradient id="paint4_linear" x1="413.533" y1="291.637" x2="367.69" y2="551.626" gradientUnits="userSpaceOnUse">
<stop stop-color="white"/>
<stop offset="0.0001" stop-color="#E3EAEF"/>
<stop offset="1" stop-color="#9FD3F9"/>
</linearGradient>
<linearGradient id="paint5_linear" x1="539.531" y1="317.705" x2="449.237" y2="565.784" gradientUnits="userSpaceOnUse">
<stop stop-color="white"/>
<stop offset="0.0001" stop-color="#E3EAEF"/>
<stop offset="1" stop-color="#9FD3F9"/>
</linearGradient>
<linearGradient id="paint6_linear" x1="305.611" y1="271.631" x2="305.611" y2="535.631" gradientUnits="userSpaceOnUse">
<stop stop-color="#CCE1F0"/>
<stop offset="0.0001" stop-color="#E3EAEF"/>
<stop offset="1" stop-color="#9FD3F9"/>
</linearGradient>
<linearGradient id="paint7_linear" x1="305.231" y1="334.25" x2="305.231" y2="450.25" gradientUnits="userSpaceOnUse">
<stop stop-color="#8F7F43"/>
<stop offset="1" stop-color="#C0B077"/>
</linearGradient>
</defs>
</svg>
